<?xml version="1.0" encoding="utf-8"?>
<!-- Generator: Adobe Illustrator 19.0.1, SVG Export Plug-In . SVG Version: 6.00 Build 0)  -->
<svg version="1.1" xmlns="http://www.w3.org/2000/svg" xmlns:xlink="http://www.w3.org/1999/xlink" x="0px" y="0px"
	 viewBox="0 0 32 32" enable-background="new 0 0 32 32" xml:space="preserve">
<g id="Layer_6" display="none">
	<rect x="-4.667" y="-1.333" display="inline" fill="#E2E2E2" width="200" height="194.734"/>
</g>
<g id="Flat" display="none">
	<g display="inline">
		<path fill="#333333" d="M16,0C7.163,0,0,7.163,0,16c0,8.836,7.163,16,16,16s16-7.164,16-16C32,7.163,24.837,0,16,0z"/>
		<path fill="none" stroke="#FF6666" stroke-width="0.5" stroke-miterlimit="10" d="M16,1.359C7.914,1.359,1.359,7.914,1.359,16
			c0,8.086,6.555,14.641,14.641,14.641S30.641,24.086,30.641,16C30.641,7.914,24.086,1.359,16,1.359z"/>
	</g>
	<path display="inline" fill="#FFFFFF" d="M13.69,24.903h3.679v-8.904h2.454l0.325-3.068h-2.779l0.004-1.536
		c0-0.8,0.076-1.229,1.224-1.229h1.534V7.097h-2.455c-2.949,0-3.986,1.489-3.986,3.992v1.842h-1.838v3.069h1.838V24.903z"/>
</g>
<g id="Flat_copy">
	<g>
		<path fill="#333333" d="M16,0C7.163,0,0,7.163,0,16c0,8.836,7.163,16,16,16s16-7.164,16-16C32,7.163,24.837,0,16,0z"/>
	</g>
	<path fill="#FFFFFF" d="M13.69,24.903h3.679v-8.904h2.454l0.325-3.068h-2.779l0.004-1.536c0-0.8,0.076-1.229,1.224-1.229h1.534
		V7.097h-2.455c-2.949,0-3.986,1.489-3.986,3.992v1.842h-1.838v3.069h1.838V24.903z"/>
</g>
</svg>
